# xmcd
#
# Track frame offsets:
#	150
#	11768
#	26195
#	38978
#	51333
#	64465
#	78295
#	90735
#	103495
#	116263
#	131025
#	143130
#	153333
#	167290
#	179655
#	192250
#	205865
#	218200
#
# Disc length: 3070 seconds
#
# Revision: 2
# Processed by: cddbd v1.5PL3 Copyright (c) Steve Scherf et al.
# Submitted via: audiograbber 1.83.01
#
DISCID=070bfc12
DTITLE=Little Walter - Juke: The Best of Little Walter
DYEAR=1989
DGENRE=Blues
TTITLE0=My Babe
TTITLE1=Sad Hours
TTITLE2=Ah'w Baby
TTITLE3=Juke
TTITLE4=Mean Old World
TTITLE5=Flying Saucer
TTITLE6=Shake Dancer
TTITLE7=Thunderbird
TTITLE8=Off The Wall
TTITLE9=Blue Midnight
TTITLE10=Mellow Down Easy
TTITLE11=Hate To See You Go
TTITLE12=Blues With A Feeling
TTITLE13=Boom Boom - Out Go The Lights
TTITLE14=Tell Me Mama
TTITLE15=Confessin' The Blues
TTITLE16=I Got To Go
TTITLE17=Key To The Highway
EXTD=
EXTT0=
EXTT1=
EXTT2=
EXTT3=
EXTT4=
EXTT5=
EXTT6=
EXTT7=
EXTT8=
EXTT9=
EXTT10=
EXTT11=
EXTT12=
EXTT13=
EXTT14=
EXTT15=
EXTT16=
EXTT17=
PLAYORDER=
